<svg xmlns="http://www.w3.org/2000/svg" viewBox="0 0 400 300"><rect width="400" height="300" fill="#e8e3d4"/>
<g stroke="#222" stroke-width="3" fill="none" stroke-linecap="round" stroke-linejoin="round">
<path d="M0 60 L400 60 M0 290 L400 290"/><path d="M0 70 Q40 50 80 70 Q120 50 160 70" stroke-width="1.5"/>
<rect x="150" y="215" width="100" height="75" fill="#bbb"/>
<circle cx="200" cy="150" r="30" fill="#e8e3d4"/><path d="M170 140 Q200 100 230 140" fill="#222"/><path d="M200 180 L200 215 M200 190 L160 230"/>
<circle cx="290" cy="150" r="28" fill="#e8e3d4"/><path d="M262 140 Q290 98 318 140 Z" fill="#555"/><path d="M290 178 L290 290"/><path d="M290 200 L240 150"/><path d="M236 144 L224 130 M240 150 L224 150" stroke-width="2.5"/>
</g></svg>